<svg width="360" height="515" viewBox="0 0 360 515" fill="none" xmlns="http://www.w3.org/2000/svg">
<g filter="url(#filter0_f_11_46)">
<path d="M373.5 263.5V388L289 438.5L153.5 448L-15 388V246L373.5 263.5Z" fill="url(#paint0_radial_11_46)"/>
<path d="M373.5 263.5V388L289 438.5L153.5 448L-15 388V246L373.5 263.5Z" stroke="black"/>
</g>
<g filter="url(#filter1_f_11_46)">
<path d="M396.5 316.5C394.9 453.7 194.5 330.667 94.5 252V-36L379 -21C385.5 34.3333 398.1 179.3 396.5 316.5Z" fill="url(#paint1_radial_11_46)"/>
<path d="M396.5 316.5C394.9 453.7 194.5 330.667 94.5 252V-36L379 -21C385.5 34.3333 398.1 179.3 396.5 316.5Z" stroke="black"/>
</g>
<g filter="url(#filter2_f_11_46)">
<path d="M220 110.5C228.4 222.1 103.833 262.667 40.5 269H-2V-10.5H309.811C322.835 -12.1765 335.268 -11.8918 345.5 -10.5H309.811C265.128 -4.74828 213.496 24.0875 220 110.5Z" fill="url(#paint2_linear_11_46)"/>
<path d="M220 110.5C228.4 222.1 103.833 262.667 40.5 269H-2V-10.5H309.811C322.835 -12.1765 335.268 -11.8918 345.5 -10.5H309.811C265.128 -4.74828 213.496 24.0875 220 110.5Z" stroke="black"/>
</g>
<defs>
<filter id="filter0_f_11_46" x="-81.3" y="179.677" width="521.1" height="334.629" filterUnits="userSpaceOnUse" color-interpolation-filters="sRGB">
<feFlood flood-opacity="0" result="BackgroundImageFix"/>
<feBlend mode="normal" in="SourceGraphic" in2="BackgroundImageFix" result="shape"/>
<feGaussianBlur stdDeviation="32.9" result="effect1_foregroundBlur_11_46"/>
</filter>
<filter id="filter1_f_11_46" x="21.8" y="-108.727" width="447.539" height="559.692" filterUnits="userSpaceOnUse" color-interpolation-filters="sRGB">
<feFlood flood-opacity="0" result="BackgroundImageFix"/>
<feBlend mode="normal" in="SourceGraphic" in2="BackgroundImageFix" result="shape"/>
<feGaussianBlur stdDeviation="36.1" result="effect1_foregroundBlur_11_46"/>
</filter>
<filter id="filter2_f_11_46" x="-61.2" y="-70.8531" width="465.9" height="399.053" filterUnits="userSpaceOnUse" color-interpolation-filters="sRGB">
<feFlood flood-opacity="0" result="BackgroundImageFix"/>
<feBlend mode="normal" in="SourceGraphic" in2="BackgroundImageFix" result="shape"/>
<feGaussianBlur stdDeviation="29.6" result="effect1_foregroundBlur_11_46"/>
</filter>
<radialGradient id="paint0_radial_11_46" cx="0" cy="0" r="1" gradientUnits="userSpaceOnUse" gradientTransform="translate(154.5 282.5) rotate(108.534) scale(273.696 526.39)">
<stop stop-color="#ED2A1D"/>
<stop offset="1" stop-color="white" stop-opacity="0.2"/>
</radialGradient>
<radialGradient id="paint1_radial_11_46" cx="0" cy="0" r="1" gradientUnits="userSpaceOnUse" gradientTransform="translate(231.75 222) rotate(-64.6789) scale(298.697 217.851)">
<stop stop-color="#4D7298"/>
<stop offset="1" stop-color="#192632" stop-opacity="0.2"/>
</radialGradient>
<linearGradient id="paint2_linear_11_46" x1="171.75" y1="-11.6531" x2="171.75" y2="269" gradientUnits="userSpaceOnUse">
<stop stop-color="#2A6041" stop-opacity="0.2"/>
<stop offset="1" stop-color="#57C686"/>
</linearGradient>
</defs>
</svg>
